<?xml version="1.0" encoding="utf-8"?>
<!-- Generator: Adobe Illustrator 25.2.0, SVG Export Plug-In . SVG Version: 6.00 Build 0)  -->
<svg version="1.1" xmlns="http://www.w3.org/2000/svg" xmlns:xlink="http://www.w3.org/1999/xlink" x="0px" y="0px"
	 viewBox="0 0 750 500" style="enable-background:new 0 0 750 500;" xml:space="preserve">
<style type="text/css">
	.st0{opacity:0.62;fill:#AEDCFE;}
	.st1{fill:#473D59;}
	.st2{fill:#AEDCFE;}
	.st3{fill:#FFFFFF;}
	.st4{fill:none;stroke:#FF7C6E;stroke-width:4.2583;stroke-linecap:round;stroke-miterlimit:10;}
	.st5{fill:url(#SVGID_1_);}
	.st6{fill:#D65B47;}
	.st7{fill:#FC9D99;}
	.st8{fill:#8EBEED;}
	.st9{fill:#D8EEFF;}
	.st10{fill:#7396C0;}
	.st11{fill:#FF7C6E;}
	.st12{opacity:0.49;fill:#2D537A;}
	.st13{fill:#385445;}
	.st14{fill:none;stroke:#0F76A6;stroke-width:0.6663;stroke-miterlimit:10;}
	.st15{opacity:0.6;fill:#D25C53;}
	.st16{fill:none;stroke:#A33E3E;stroke-width:0.6663;stroke-miterlimit:10;}
	.st17{fill:#9E3C3C;}
	.st18{fill:#312D3F;}
	.st19{fill:#7A2D33;}
	.st20{fill:#8E3930;}
	.st21{fill:none;stroke:#AA4944;stroke-width:0.5974;stroke-miterlimit:10;}
	.st22{fill:#FFFFEB;}
	.st23{fill:none;stroke:#AA4944;stroke-width:0.5974;stroke-linecap:round;stroke-miterlimit:10;}
	.st24{fill:#F9BBB9;}
	.st25{opacity:0.53;fill:#8EBEED;}
	.st26{opacity:0.6;fill:#473D59;}
	.st27{fill:none;stroke:#AA4944;stroke-width:0.6837;stroke-linecap:round;stroke-miterlimit:10;}
	.st28{opacity:0.34;fill:#FFFFFF;}
	.st29{fill:#5F5277;}
	.st30{opacity:0.38;fill:none;stroke:#442020;stroke-width:1.1766;stroke-miterlimit:10;}
	.st31{opacity:0.38;fill:#442020;}
	.st32{fill:none;stroke:#5F5277;stroke-width:2.3532;stroke-miterlimit:10;}
	.st33{fill:none;stroke:#AA4944;stroke-width:0.7788;stroke-linecap:round;stroke-miterlimit:10;}
	.st34{fill:#BA3936;}
	.st35{fill:#544768;}
	.st36{fill:none;stroke:#473D59;stroke-width:0.7476;stroke-linecap:round;stroke-miterlimit:10;}
</style>
<g id="BACKGROUND">
</g>
<g id="OBJECTS">
	<g>
		<path class="st0" d="M596.83,331.75c-86.05,25.1-177.82,27.26-265.79,11.53c-43.67-7.81-86.54-20.01-127.84-36.22
			c-32.5-12.75-86.28-28.78-107.07-58.74c-13.9-20.03-20.46-43.04-20.76-67.37c0-0.18,0-0.35,0-0.53
			c-0.32-33.46,13.18-69.1,47.7-77.11c72-16.72,179.3,20.35,280.26-17.74s165.59-71.02,237.61-19.63
			c72.02,51.39,86.12,228.23-18.48,258.37C613.6,326.86,605.07,329.34,596.83,331.75z"/>
		<g>
			<g>
				<path class="st1" d="M463.52,378c0,3.92-93.29,7.1-208.36,7.1S46.8,381.92,46.8,378c0-3.92,93.29-7.1,208.36-7.1
					S463.52,374.08,463.52,378z"/>
				<polygon class="st1" points="77.68,377.5 343.48,377.5 387.08,146.57 121.27,146.57 				"/>
				<polygon class="st2" points="432.65,377.5 166.84,377.5 123.24,146.57 389.05,146.57 				"/>
				
					<ellipse transform="matrix(0.2174 -0.9761 0.9761 0.2174 124.8653 479.2989)" class="st3" cx="361.34" cy="161.78" rx="10.12" ry="10.12"/>
				<path class="st1" d="M366.96,160.07c0,3.11-2.52,5.63-5.63,5.63l0,0c-3.11,0-5.63-2.52-5.63-5.63v-25.32
					c0-3.11,2.52-5.63,5.63-5.63l0,0c3.11,0,5.63,2.52,5.63,5.63V160.07z"/>
				
					<ellipse transform="matrix(0.1575 -0.9875 0.9875 0.1575 112.5316 455.4655)" class="st3" cx="323.21" cy="161.78" rx="10.12" ry="10.12"/>
				<path class="st1" d="M328.83,160.07c0,3.11-2.52,5.63-5.63,5.63l0,0c-3.11,0-5.63-2.52-5.63-5.63v-25.32
					c0-3.11,2.52-5.63,5.63-5.63l0,0c3.11,0,5.63,2.52,5.63,5.63V160.07z"/>
				
					<ellipse transform="matrix(0.1607 -0.987 0.987 0.1607 79.5922 417.1569)" class="st3" cx="285.08" cy="161.78" rx="10.12" ry="10.12"/>
				<path class="st1" d="M290.7,160.07c0,3.11-2.52,5.63-5.63,5.63l0,0c-3.11,0-5.63-2.52-5.63-5.63v-25.32
					c0-3.11,2.52-5.63,5.63-5.63l0,0c3.11,0,5.63,2.52,5.63,5.63V160.07z"/>
				
					<ellipse transform="matrix(0.1607 -0.987 0.987 0.1607 47.589 379.522)" class="st3" cx="246.95" cy="161.78" rx="10.12" ry="10.12"/>
				<path class="st1" d="M252.57,160.07c0,3.11-2.52,5.63-5.63,5.63l0,0c-3.11,0-5.63-2.52-5.63-5.63v-25.32
					c0-3.11,2.52-5.63,5.63-5.63l0,0c3.11,0,5.63,2.52,5.63,5.63V160.07z"/>
				
					<ellipse transform="matrix(0.1654 -0.9862 0.9862 0.1654 14.731 340.9657)" class="st3" cx="208.82" cy="161.78" rx="10.12" ry="10.12"/>
				<path class="st1" d="M214.44,160.07c0,3.11-2.52,5.63-5.63,5.63l0,0c-3.11,0-5.63-2.52-5.63-5.63v-25.32
					c0-3.11,2.52-5.63,5.63-5.63l0,0c3.11,0,5.63,2.52,5.63,5.63V160.07z"/>
				
					<ellipse transform="matrix(0.1615 -0.9869 0.9869 0.1615 -16.5321 304.1017)" class="st3" cx="170.69" cy="161.78" rx="10.12" ry="10.12"/>
				<path class="st1" d="M176.31,160.07c0,3.11-2.52,5.63-5.63,5.63l0,0c-3.11,0-5.63-2.52-5.63-5.63v-25.32
					c0-3.11,2.52-5.63,5.63-5.63l0,0c3.11,0,5.63,2.52,5.63,5.63V160.07z"/>
				<g>
					<polygon class="st3" points="359.7,213.92 388.79,213.92 393.95,243.01 364.86,243.01 					"/>
					<polygon class="st3" points="325.69,213.92 354.78,213.92 359.94,243.01 330.85,243.01 					"/>
					<polygon class="st3" points="291.68,213.92 320.77,213.92 325.93,243.01 296.84,243.01 					"/>
					<polygon class="st3" points="257.67,213.92 286.76,213.92 291.92,243.01 262.83,243.01 					"/>
					<polygon class="st3" points="223.66,213.92 252.75,213.92 257.91,243.01 228.82,243.01 					"/>
					<polygon class="st3" points="189.65,213.92 218.75,213.92 223.9,243.01 194.81,243.01 					"/>
					<polygon class="st3" points="155.65,213.92 184.74,213.92 189.89,243.01 160.8,243.01 					"/>
				</g>
				<g>
					<polygon class="st3" points="365.87,247.49 394.96,247.49 400.12,276.58 371.03,276.58 					"/>
					<polygon class="st3" points="331.86,247.49 360.95,247.49 366.11,276.58 337.02,276.58 					"/>
					<polygon class="st3" points="297.85,247.49 326.94,247.49 332.1,276.58 303.01,276.58 					"/>
					<polygon class="st3" points="263.84,247.49 292.94,247.49 298.09,276.58 269,276.58 					"/>
					<polygon class="st3" points="229.84,247.49 258.93,247.49 264.08,276.58 234.99,276.58 					"/>
					<polygon class="st3" points="195.83,247.49 224.92,247.49 230.07,276.58 200.98,276.58 					"/>
					<polygon class="st3" points="161.82,247.49 190.91,247.49 196.07,276.58 166.97,276.58 					"/>
				</g>
				<g>
					<polygon class="st3" points="371.77,281.06 400.86,281.06 406.01,310.15 376.92,310.15 					"/>
					<polygon class="st3" points="337.76,281.06 366.85,281.06 372,310.15 342.91,310.15 					"/>
					<polygon class="st3" points="303.75,281.06 332.84,281.06 337.99,310.15 308.9,310.15 					"/>
					<polygon class="st3" points="269.74,281.06 298.83,281.06 303.99,310.15 274.89,310.15 					"/>
					<polygon class="st3" points="235.73,281.06 264.82,281.06 269.98,310.15 240.89,310.15 					"/>
					<polygon class="st3" points="201.72,281.06 230.81,281.06 235.97,310.15 206.88,310.15 					"/>
					<polygon class="st3" points="167.71,281.06 196.8,281.06 201.96,310.15 172.87,310.15 					"/>
				</g>
				<g>
					<polygon class="st3" points="377.96,314.62 407.05,314.62 412.21,343.71 383.12,343.71 					"/>
					<polygon class="st3" points="343.95,314.62 373.04,314.62 378.2,343.71 349.11,343.71 					"/>
					<polygon class="st3" points="309.94,314.62 339.03,314.62 344.19,343.71 315.1,343.71 					"/>
					<polygon class="st3" points="275.93,314.62 305.02,314.62 310.18,343.71 281.09,343.71 					"/>
					<polygon class="st3" points="241.92,314.62 271.01,314.62 276.17,343.71 247.08,343.71 					"/>
					<polygon class="st3" points="207.91,314.62 237,314.62 242.16,343.71 213.07,343.71 					"/>
					<polygon class="st3" points="173.9,314.62 202.99,314.62 208.15,343.71 179.06,343.71 					"/>
				</g>
				<g>
					<line class="st4" x1="248.94" y1="213.92" x2="234.9" y2="239.64"/>
					<line class="st4" x1="231.37" y1="216.81" x2="252.47" y2="237.82"/>
				</g>
				<g>
					<line class="st4" x1="214.49" y1="213.92" x2="200.45" y2="239.64"/>
					<line class="st4" x1="196.92" y1="216.81" x2="218.02" y2="237.82"/>
				</g>
				<g>
					<line class="st4" x1="178.95" y1="213.92" x2="164.91" y2="239.64"/>
					<line class="st4" x1="161.38" y1="216.81" x2="182.48" y2="237.82"/>
				</g>
			</g>
			<linearGradient id="SVGID_1_" gradientUnits="userSpaceOnUse" x1="241.4521" y1="267.3142" x2="336.452" y2="302.3143">
				<stop  offset="0" style="stop-color:#FFFFFF"/>
				<stop  offset="0.1483" style="stop-color:#FBFCFD"/>
				<stop  offset="0.2945" style="stop-color:#EFF3F9"/>
				<stop  offset="0.4399" style="stop-color:#DBE4F0"/>
				<stop  offset="0.5849" style="stop-color:#C0D0E5"/>
				<stop  offset="0.7295" style="stop-color:#9CB5D6"/>
				<stop  offset="0.872" style="stop-color:#7195C5"/>
				<stop  offset="1" style="stop-color:#4373B2"/>
			</linearGradient>
			<path class="st5" d="M432.03,374.24l-42.98-227.68h-1.97h-20.11v-11.82c0-3.11-2.52-5.63-5.63-5.63c-3.11,0-5.63,2.52-5.63,5.63
				v11.82h-26.88v-11.82c0-3.11-2.52-5.63-5.63-5.63c-3.11,0-5.63,2.52-5.63,5.63v11.82H290.7v-11.82c0-3.11-2.52-5.63-5.63-5.63
				c-3.11,0-5.63,2.52-5.63,5.63v11.82h-26.88v-11.82c0-3.11-2.52-5.63-5.63-5.63c-3.11,0-5.63,2.52-5.63,5.63v11.82h-26.88v-11.82
				c0-3.11-2.52-5.63-5.63-5.63s-5.63,2.52-5.63,5.63v11.82h-26.88v-11.82c0-3.11-2.52-5.63-5.63-5.63c-3.11,0-5.63,2.52-5.63,5.63
				v11.82h-41.82h-1.97L78.29,374.24c-19.95,1.09-31.49,2.38-31.49,3.76c0,3.92,93.29,7.1,208.36,7.1s208.36-3.18,208.36-7.1
				C463.52,376.62,451.98,375.33,432.03,374.24z"/>
		</g>
		<g>
			<path class="st6" d="M159.4,267.49c0,0,1.45-5.9-1.56-8.62c-3.01-2.72-11.85-2.55-15.94,2.38c-4.08,4.93-6.02,11.07-3.06,17.44
				c2.96,6.37,13.57,27.56,20.9,31.01c7.34,3.44,16.18-1.31,19.08-10.76c2.89-9.45-1.87-18.77-9.53-22.62
				C161.64,272.48,159.05,270.5,159.4,267.49z"/>
			<path class="st7" d="M207.2,291.52l-0.52-0.6v-0.03c0-1.5-1.22-2.72-2.72-2.72h-3.63c-1.32,0-2.55,0.63-3.32,1.7l-12.97,17.93
				c0,0-5.39-7.23-11.14-15.32c-5.75-8.09-9.52-8.7-9.52-8.7l3.41,23.14l11.23,14.56c2.07,2.69,6.09,2.8,8.32,0.23l14.06-16.26
				l7.29-8.85c0.72-0.88,0.91-2.09,0.48-3.14C207.74,292.43,207.2,291.52,207.2,291.52z"/>
			<path class="st1" d="M123.41,442.97c0,2.22,20.34,4.02,45.43,4.02c25.09,0,45.43-1.8,45.43-4.02c0-2.22-20.34-4.02-45.43-4.02
				C143.75,438.95,123.41,440.75,123.41,442.97z"/>
			<g>
				<path class="st8" d="M170.38,329.98l4.55,17.06l9.1,42.41l6.47,48.16c0,0,6.47,0.72,6.47,4.79c-24.44,0-24.44,0-24.44,0
					l-6.74-49.6l-10.03-62.82L170.38,329.98z"/>
				<path class="st9" d="M144.18,329.98c0,0-4.84,26.61,2.3,47.35c7.13,20.74,7.13,20.74,7.13,20.74l-11.03,44.33h27.8
					c0,0,0-4.07-4.31-4.79l5.63-35.59c0.71-4.52,0.7-9.12-0.05-13.64l-6.39-38.71c0,0,1.65-14.72-0.81-19.7
					C161.99,325,144.18,329.98,144.18,329.98z"/>
				<path class="st8" d="M153.61,398.08c0,0,0,0-7.13-20.74c-7.13-20.74-2.3-47.35-2.3-47.35s3.93-1.1,8.35-1.75
					c-1.26,7.35-4.38,29.55,0.46,47.08c5.89,21.32,7.09,24.68,7.09,24.68l-10.88,42.41h-6.62L153.61,398.08z"/>
				<path class="st10" d="M164.45,329.98c2.07,4.21,1.22,15.35,0.91,18.72l0,0c-0.47-3.98-4.54-15.23-6.67-20.92
					C161.43,327.85,163.69,328.43,164.45,329.98z"/>
				<path class="st11" d="M143.77,437.61h22.3c4.31,0.72,4.31,4.79,4.31,4.79h-27.8L143.77,437.61z"/>
				<path class="st11" d="M196.98,442.41c-24.44,0-24.44,0-24.44,0l-0.65-4.79h18.62C190.51,437.61,196.98,438.33,196.98,442.41z"/>
				<path class="st10" d="M171.91,400.47c-3.85-0.1-6.95-3.25-6.95-7.13c0-3.67,2.77-6.69,6.33-7.09l0.35,2.15
					C172.31,392.39,172.4,396.45,171.91,400.47z"/>
				<path class="st12" d="M185.33,399.28c-3.92,0-7.1-3.18-7.1-7.1c0-3.17,2.08-5.85,4.94-6.76l0.87,4.03l1.32,9.82
					C185.35,399.28,185.34,399.28,185.33,399.28z"/>
				<path class="st13" d="M152.99,438.33c0,0.4,0.32,0.72,0.72,0.72h11.64c0.4,0,0.72-0.32,0.72-0.72l0,0c0-0.4-0.32-0.72-0.72-0.72
					h-11.64C153.31,437.61,152.99,437.94,152.99,438.33L152.99,438.33z"/>
				<path class="st13" d="M180.8,438.33c0,0.4,0.32,0.72,0.72,0.72h8.27c0.4,0,0.72-0.32,0.72-0.72l0,0c0-0.4-0.32-0.72-0.72-0.72
					h-8.27C181.13,437.61,180.8,437.94,180.8,438.33L180.8,438.33z"/>
				<path class="st14" d="M165.26,346.92l6.08,37.04c1.47,8.65,1.3,17.5-0.51,26.08l-1.63,7.78"/>
			</g>
			<path class="st1" d="M147.06,282.25l-12.26,8.66c0,0,12.07,19.35,9.27,40.02c12.84,4.13,26.31-0.95,26.31-0.95l-2.88-20.97
				c0,0,3.59-4.69,1.62-11.15c-1.98-6.46-5.75-14.08-5.75-14.08l-11.84-2.49L147.06,282.25z"/>
			<path class="st7" d="M139.71,287.44c1.92,2.78,7.25,11.82,2.27,20.35c-2.87-9.97-7.18-16.88-7.18-16.88L139.71,287.44z"/>
			<path class="st15" d="M183.59,319.23c1.45,0,2.81,0.38,3.99,1.04l-1.25,1.44c-2.22,2.57-6.24,2.46-8.32-0.23l-0.02-0.03
				C179.46,320.08,181.42,319.23,183.59,319.23z"/>
			<line class="st16" x1="184.04" y1="307.8" x2="180.8" y2="311.7"/>
			<path class="st7" d="M167.97,312.38l2.41,17.6c0,0-13.48,5.08-26.31,0.95c0.69-5.13,0.47-10.17-0.25-14.86
				C154.07,317.07,164.08,313.84,167.97,312.38z"/>
			<path class="st17" d="M164.45,327.52c0,0.71,0.36,1.29,0.81,1.29s0.81-0.58,0.81-1.29c0-0.71-0.36-1.29-0.81-1.29
				S164.45,326.81,164.45,327.52z"/>
			<path class="st18" d="M167.51,309.01c0,0-11.94,1.36-18.93-0.57c-6.99-1.93,6.55,4.63,19.39,3.95
				C167.51,309.01,167.51,309.01,167.51,309.01z"/>
			<path class="st7" d="M147.65,273.16l1.3,11.35c0.18,1.55,1.6,2.64,3.14,2.42l0.05-0.01c1.46-0.21,2.49-1.53,2.35-2.99l-0.91-9.54
				L147.65,273.16z"/>
			<path class="st19" d="M154.11,279.92l-0.53-5.53l-5.94-1.23l0.12,1.09C148.35,275.17,150.91,279.02,154.11,279.92z"/>
			<path class="st7" d="M157.9,261.25c0,0,3.86,9.87,0,17.01c-2.61,0.91-11-1.59-12.25-8.51
				C150.41,268.29,156.08,265.56,157.9,261.25z"/>
			<path class="st20" d="M155.45,269.14c0,0.39-0.32,0.71-0.71,0.71l0,0c-0.39,0-0.71-0.32-0.71-0.71v-0.95
				c0-0.39,0.32-0.71,0.71-0.71l0,0c0.39,0,0.71,0.32,0.71,0.71V269.14z"/>
			<polyline class="st21" points="158.12,268.67 158.58,271.46 157.1,271.46 			"/>
			<path class="st22" d="M158.58,273.16l-4.54,0.57C154.04,273.73,157.55,275.55,158.58,273.16z"/>
			<path class="st21" d="M155.45,266.13c0,0-1.09-0.36-2.82,0.59"/>
			<path class="st7" d="M147.71,272.62c0,1.41-1.14,2.55-2.55,2.55c-1.41,0-2.55-1.14-2.55-2.55c0-1.41,1.14-2.55,2.55-2.55
				C146.57,270.07,147.71,271.21,147.71,272.62z"/>
			<line class="st23" x1="143.69" y1="272.05" x2="147" y2="273.16"/>
			<path class="st3" d="M146.06,275.55c0,0.65-0.53,1.18-1.18,1.18s-1.18-0.53-1.18-1.18c0-0.65,0.53-1.18,1.18-1.18
				S146.06,274.9,146.06,275.55z"/>
			<path class="st11" d="M152.13,257.12c-3.59-0.07-7.77,1.17-10.23,4.14c-2.26,2.73-3.86,5.84-4.34,9.14
				C147.24,267.97,150.82,261.63,152.13,257.12z"/>
			<g>
				<path class="st6" d="M241.84,233.85l-26.35,14.46l-98.27,109.87c-1.65,1.85-1.49,4.68,0.35,6.34l4.41,3.94l4.41,3.94
					c1.85,1.65,4.68,1.49,6.34-0.35L231,262.18l11.44-27.8C242.59,234.02,242.19,233.66,241.84,233.85z"/>
				
					<rect x="124.12" y="289.18" transform="matrix(0.6666 -0.7454 0.7454 0.6666 -162.0979 236.7182)" class="st8" width="118.95" height="20.81"/>
				
					<rect x="124.05" y="294.91" transform="matrix(0.6666 -0.7454 0.7454 0.6666 -162.0739 236.6427)" class="st10" width="118.95" height="9.21"/>
				
					<rect x="134.99" y="337.51" transform="matrix(0.6666 -0.7454 0.7454 0.6666 -212.5396 220.6086)" class="st1" width="10.75" height="20.81"/>
				<path class="st24" d="M241.84,233.85l-26.35,14.46L231,262.18l11.44-27.8C242.59,234.02,242.19,233.66,241.84,233.85z"/>
				
					<rect x="134.92" y="343.25" transform="matrix(0.6666 -0.7454 0.7454 0.6666 -212.5154 220.533)" class="st25" width="10.75" height="9.21"/>
				<path class="st1" d="M241.84,233.85l-10.23,5.61l6.39,5.71l4.44-10.79C242.59,234.02,242.19,233.66,241.84,233.85z"/>
			</g>
			<path class="st1" d="M201.42,286.41c0,0-3.18,0.75-2.72,3.4c-3.56,0.77-5.41,8.33-4.43,13.43l9.98-11.15L201.42,286.41z"/>
			<polygon class="st26" points="154.32,347.92 150.24,343.64 144.05,336.75 142.27,330.18 137.53,335.49 141.74,344.76 
				150.68,351.99 151.7,350.85 154.32,347.92 			"/>
			<path class="st7" d="M134.8,290.91c0,0-2.88,2.17-4.49,8.16c-1.19,4.39-3.72,19.81-4.99,27.74c-0.49,3.06,0.26,6.19,2.08,8.7
				l14.17,19.5c1.19,1.63,2.92,2.78,4.88,3.24l0.03,0.01l2.41,2.84c0.55,0.65,1.56,0.63,2.09-0.04l0.02-0.02
				c0.33-0.41,0.39-0.98,0.15-1.45l-2.56-5.11l1.84,0.83c1.09,0.49,2.35-0.19,2.54-1.37l0-0.03c0.07-0.44-0.02-0.88-0.26-1.26
				l-17.01-26.92l5.38-26.65C141.08,299.07,139.11,291.33,134.8,290.91z"/>
			<path class="st15" d="M131.03,331.82c0,2.09-1.05,3.93-2.65,5.03l-0.98-1.35c-1.82-2.51-2.57-5.63-2.08-8.7
				c0.05-0.34,0.11-0.69,0.17-1.06C128.59,326.03,131.03,328.64,131.03,331.82z"/>
			<path class="st7" d="M207.57,292.2l-3.11-5.48c-0.65-1.1-2.19-1.25-3.04-0.3l-0.02,0.03c-0.45,0.5-0.6,1.21-0.39,1.86l1.45,4.4
				l-2.03-2.39c-0.64-0.76-1.81-0.77-2.47-0.03l-1.98,2.21c-0.54,0.61-0.78,1.43-0.66,2.23l1.65,10.39L207.57,292.2z"/>
			<line class="st27" x1="197.23" y1="291.1" x2="199.28" y2="296.7"/>
			<line class="st27" x1="135.7" y1="325.72" x2="132.84" y2="321.4"/>
			<path class="st28" d="M150.78,267.73c0.76,3.3,2.07,7.44,4.21,10.55c1.2,0.23,2.24,0.22,2.9-0.01c3.86-7.15,0-17.01,0-17.01
				C156.72,264.05,153.91,266.18,150.78,267.73z"/>
		</g>
		<g>
			<g>
				<path class="st29" d="M568,221.07c0,0,35.92-14.59,45.19-40.72c9.27-26.13,34.41-44.09,34.41-44.09s-73.59,19.71-95.16,82.16
					C568,221.07,568,221.07,568,221.07z"/>
				<path class="st30" d="M647.59,136.26c0,0-65.29,36.66-86,88.26"/>
				<path class="st31" d="M552.43,218.41c15.57,2.65,15.57,2.65,15.57,2.65s6.05-2.46,13.83-7.17c-4.34-5.1-8.57-18.91-11.06-28.2
					C563.23,195,556.77,205.84,552.43,218.41z"/>
			</g>
			<g>
				<path class="st29" d="M570.17,240.43c0,0,18.35-26.89,43.32-36.26c9.41-3.53,18.65-8.65,26.47-15.4
					c5.6-4.83,10.76-14.68,18.91-14.35c17.22,0.71,4.29,23.21-0.48,29.86c-16.13,20.09-29.8,17.68-46.77,23.45
					c-16.97,5.77-32.21,27.57-33.78,30.11C576.29,260.37,570.17,240.43,570.17,240.43z"/>
				<path class="st30" d="M579.07,239.3c0,0,18.84-23.51,40.77-28.32c21.93-4.8,37.7-26.61,37.7-26.61"/>
				<path class="st31" d="M593.91,239.1c1.02-8.01-4.05-15.79-6.05-18.49c-10.91,9.89-17.69,19.81-17.69,19.81
					s3.28,10.71,5.65,15.43c1.58-0.61,3.27-1.34,4.96-2.18C583.63,249.9,588.27,244.28,593.91,239.1z"/>
			</g>
			<g>
				<g>
					<path class="st29" d="M373.34,385.46c0,0-31.37-15.92-62.11-22.12c-30.75-6.2-58.1-48.39-91.87-49.13
						c20.87,25.3,24.38,59.33,88.93,70.21c21.65,3.1,53.5,15.96,70.34,26.14C395.46,420.73,373.34,385.46,373.34,385.46z"/>
				</g>
				<path class="st31" d="M362.52,392.66c0,0-31.43-14.75-62.15-18.94c-30.71-4.19-59.26-42.42-59.26-42.42s34.18,36.22,59.36,38.68
					c25.18,2.46,60.7,17.07,60.7,17.07L362.52,392.66z"/>
				<path class="st31" d="M312.1,363.53c30.46,6.32,61.23,21.93,61.23,21.93s22.12,35.27,5.28,25.1
					c-11.31-6.83-29.39-14.88-46.61-20.36L312.1,363.53z"/>
				<g>
					<path class="st32" d="M376.63,370.33c0,0-19.39-22.26-47.57-28.73c-28.18-6.47-58.1-20.84-81.17-46.16"/>
					<g>
						<path class="st29" d="M342.32,345.48c0,0,3.37-6.14-2.22-11.84C336.95,337.96,339.45,342,342.32,345.48z"/>
						<path class="st29" d="M342.32,345.48c0,0-1.82,6.76-9.8,7C333.24,347.19,337.84,346,342.32,345.48z"/>
					</g>
					<g>
						<path class="st29" d="M326.95,341.15c0,0,3.37-6.14-2.22-11.84C321.59,333.63,324.09,337.67,326.95,341.15z"/>
						<path class="st29" d="M326.95,341.15c0,0-1.82,6.76-9.8,7C317.88,342.85,322.47,341.67,326.95,341.15z"/>
					</g>
					<g>
						<g>
							<path class="st29" d="M313.31,336.62c0,0,2.44-6.56-3.93-11.38C306.9,329.97,309.96,333.6,313.31,336.62z"/>
							<path class="st29" d="M313.31,336.62c0,0-0.81,6.95-8.67,8.35C304.58,339.64,308.95,337.79,313.31,336.62z"/>
						</g>
					</g>
					<g>
						<path class="st29" d="M299.37,331.42c0,0,2.44-6.56-3.93-11.38C292.97,324.77,296.03,328.4,299.37,331.42z"/>
						<path class="st29" d="M299.37,331.42c0,0-0.81,6.96-8.67,8.35C290.64,334.44,295.02,332.59,299.37,331.42z"/>
					</g>
					<g>
						<path class="st29" d="M286.68,324.88c0,0,4.75-5.14,0.7-12.02C283.29,316.29,284.73,320.81,286.68,324.88z"/>
						<path class="st29" d="M286.68,324.88c0,0-3.4,6.12-11.2,4.42C277.46,324.34,282.2,324.31,286.68,324.88z"/>
					</g>
					<g>
						<path class="st29" d="M273.29,318.03c0,0,4.75-5.14,0.7-12.02C269.9,309.44,271.35,313.96,273.29,318.03z"/>
						<path class="st29" d="M273.29,318.03c0,0-3.4,6.12-11.2,4.42C264.07,317.49,268.82,317.45,273.29,318.03z"/>
					</g>
					<g>
						<g>
							<path class="st29" d="M261.17,307.24c0,0,4.92-4.98,1.1-11.99C258.06,298.54,259.36,303.11,261.17,307.24z"/>
							<path class="st29" d="M261.17,307.24c0,0-3.6,6.01-11.34,4.05C251.97,306.4,256.71,306.52,261.17,307.24z"/>
						</g>
					</g>
					<path class="st29" d="M250.13,297.52c0,0-6.98-0.59-8.63-8.4C246.84,288.89,248.82,293.2,250.13,297.52z"/>
				</g>
				<g>
					<g>
						<path class="st29" d="M374.45,413.02c0,0-37.1,15.33-62.93,2.79c-25.83-12.54-57.42-7.52-57.42-7.52s68.62-38.93,129.91-8.54
							C374.45,413.02,374.45,413.02,374.45,413.02z"/>
						<path class="st30" d="M254.09,408.29c0,0,74.81-20.4,127.59,2.62"/>
					</g>
					<path class="st31" d="M330.49,388.16c17.21-0.23,35.67,2.74,53.51,11.58c-3.2,4.44-5.32,7.39-6.74,9.36
						c1.49,0.57,2.96,1.17,4.41,1.8l-5.63-0.12c-1.6,2.22-1.6,2.23-1.6,2.23s-8.88,3.66-20.96,5.94L330.49,388.16z"/>
				</g>
			</g>
			<g>
				<g>
					<path class="st7" d="M625.74,272.9l-55.41-46.55l-9.06-6.57c-1.15-0.83-2.77-0.33-3.25,1.01l-0.01,0.04
						c-0.28,0.77-0.08,1.64,0.5,2.22l6.15,6.15c0,0-5.39-0.57-1.7,4.26c3.69,4.83,51.14,51.1,51.14,51.1L625.74,272.9z"/>
					<line class="st33" x1="564.66" y1="229.2" x2="572.32" y2="234.02"/>
					<path class="st34" d="M596.87,267.68c9.47,9.32,17.22,16.87,17.22,16.87l11.65-11.65l-18.9-15.88L596.87,267.68z"/>
					<path class="st15" d="M580.07,251.05c3.89,3.88,8.07,8.01,12.12,12.01C592.89,252.03,580.07,251.05,580.07,251.05z"/>
				</g>
				<ellipse class="st1" cx="454.98" cy="440.06" rx="91.33" ry="5.39"/>
				<g>
					<g>
						
							<rect x="518.75" y="155.81" transform="matrix(0.5266 -0.8501 0.8501 0.5266 108.6719 533.2425)" class="st8" width="28.71" height="26.48"/>
						
							<rect x="532.44" y="148.18" transform="matrix(0.5266 -0.8501 0.8501 0.5266 117.3945 533.6477)" class="st1" width="10.76" height="26.48"/>
						<g>
							<path class="st6" d="M552.58,172.35l-31.16-19.3c-2.49-1.54-3.26-4.81-1.71-7.29l6-9.69c1.54-2.49,4.81-3.26,7.29-1.71
								l31.16,19.3c2.49,1.54,3.26,4.81,1.71,7.29l-6,9.69C558.33,173.12,555.06,173.89,552.58,172.35z"/>
							
								<rect x="518.39" y="142.48" transform="matrix(0.5266 -0.8501 0.8501 0.5266 127.3242 518.7215)" class="st11" width="22" height="5.12"/>
							
								<rect x="527.34" y="148.03" transform="matrix(0.5266 -0.8501 0.8501 0.5266 126.8485 528.9594)" class="st11" width="22" height="5.12"/>
							
								<rect x="536.3" y="153.58" transform="matrix(0.5266 -0.8501 0.8501 0.5266 126.3729 539.1971)" class="st11" width="22" height="5.12"/>
							
								<rect x="545.25" y="159.12" transform="matrix(0.5266 -0.8501 0.8501 0.5266 125.8972 549.435)" class="st11" width="22" height="5.12"/>
						</g>
					</g>
					<g>
						
							<rect x="363.35" y="154.7" transform="matrix(0.8501 -0.5266 0.5266 0.8501 -32.5786 223.6355)" class="st8" width="26.48" height="28.71"/>
						
							<rect x="358.63" y="156.04" transform="matrix(0.8501 -0.5266 0.5266 0.8501 -29.2696 220.004)" class="st1" width="26.48" height="10.76"/>
						<g>
							<path class="st6" d="M357.12,172.35l31.16-19.3c2.49-1.54,3.26-4.81,1.71-7.29l-6-9.69c-1.54-2.49-4.81-3.26-7.29-1.71
								l-31.16,19.3c-2.49,1.54-3.26,4.81-1.71,7.29l6,9.69C351.36,173.12,354.63,173.89,357.12,172.35z"/>
							
								<rect x="377.75" y="134.05" transform="matrix(0.8501 -0.5266 0.5266 0.8501 -19.3814 221.9913)" class="st11" width="5.12" height="22"/>
							
								<rect x="368.79" y="139.59" transform="matrix(0.8501 -0.5266 0.5266 0.8501 -23.6436 218.1076)" class="st11" width="5.12" height="22"/>
							
								<rect x="359.84" y="145.14" transform="matrix(0.8501 -0.5266 0.5266 0.8501 -27.9057 214.2239)" class="st11" width="5.12" height="22"/>
							
								<rect x="350.88" y="150.68" transform="matrix(0.8501 -0.5266 0.5266 0.8501 -32.1679 210.3402)" class="st11" width="5.12" height="22"/>
						</g>
					</g>
					<rect x="434.27" y="122.53" class="st8" width="41.18" height="44.66"/>
					<rect x="434.27" y="122.53" class="st1" width="41.18" height="16.74"/>
					<circle class="st11" cx="454.84" cy="294.64" r="145.76"/>
					<circle class="st6" cx="454.84" cy="294.56" r="136.18"/>
					
						<ellipse transform="matrix(0.7071 -0.7071 0.7071 0.7071 -74.9274 407.838)" class="st3" cx="454.84" cy="294.36" rx="127.18" ry="127.18"/>
					<g>
						<path class="st8" d="M537.66,345.18c0.21-2.73,2.76-4.62,4.96-3.42c4.7,2.54,9.31,5.25,13.89,8c1.51,0.9,1.78,2.99,0.86,4.47
							c-0.93,1.5-2.84,2.04-4.54,1.1c-3.63-2.01-7.22-4.12-10.82-6.19c-0.84-0.48-1.78-0.86-2.48-1.51
							C538.79,346.94,538.27,346.01,537.66,345.18z"/>
						<path class="st8" d="M458.2,402.4c0,2.43,0.02,4.86,0,7.29c-0.02,2.14-1.38,3.63-3.29,3.65c-2,0.02-3.45-1.49-3.46-3.67
							c-0.01-4.86-0.01-9.72,0.02-14.59c0.01-2.28,1.34-3.71,3.37-3.71c2.03,0,3.33,1.42,3.35,3.73
							C458.22,397.54,458.2,399.97,458.2,402.4C458.2,402.4,458.2,402.4,458.2,402.4z"/>
						<path class="st8" d="M562.35,298.24c-2.43,0-4.86,0.02-7.3-0.01c-2.33-0.03-3.7-1.3-3.69-3.38c0.01-1.97,1.36-3.29,3.6-3.31
							c4.92-0.05,9.84-0.05,14.75-0.01c2.12,0.02,3.59,1.49,3.57,3.4c-0.02,1.93-1.47,3.27-3.64,3.29c-2.43,0.03-4.86,0.01-7.3,0.01
							C562.35,298.23,562.35,298.23,562.35,298.24z"/>
						<path class="st8" d="M408.24,381.8c-0.12,0.3-0.31,1.03-0.67,1.67c-2.37,4.18-4.76,8.34-7.17,12.49
							c-1.09,1.88-3.02,2.49-4.66,1.56c-1.8-1.01-2.32-2.93-1.22-4.87c2.42-4.27,4.87-8.52,7.34-12.76
							c0.95-1.62,2.55-2.28,4.12-1.72C407.44,378.69,408.26,379.75,408.24,381.8z"/>
						<path class="st8" d="M505.54,378c0.47,0.38,1.66,0.95,2.24,1.9c2.54,4.14,4.93,8.37,7.33,12.6c1.14,2.01,0.69,3.95-1,4.95
							c-1.78,1.05-3.67,0.46-4.89-1.63c-2.46-4.2-4.9-8.4-7.28-12.64C500.54,380.69,502.08,377.99,505.54,378z"/>
						<path class="st8" d="M347.35,298.2c-2.43,0-4.86,0.02-7.3-0.01c-2.23-0.03-3.57-1.3-3.57-3.3c0-1.99,1.36-3.32,3.58-3.34
							c4.86-0.05,9.73-0.05,14.59-0.03c2.15,0.01,3.65,1.41,3.68,3.3c0.03,2.04-1.36,3.34-3.69,3.37
							C352.21,298.23,349.78,298.2,347.35,298.2z"/>
						<path class="st8" d="M355.44,355.78c-1.88-0.13-2.95-0.89-3.43-2.41c-0.47-1.49,0.1-3.01,1.57-3.88
							c3.81-2.25,7.65-4.44,11.48-6.65c0.56-0.32,1.12-0.65,1.7-0.94c1.78-0.88,3.69-0.31,4.59,1.35c0.85,1.58,0.35,3.47-1.34,4.48
							c-3.01,1.8-6.06,3.52-9.1,5.28c-1.21,0.7-2.41,1.44-3.65,2.09C356.61,355.44,355.87,355.62,355.44,355.78z"/>
						<path class="st8" d="M458.14,187.46c0,2.43,0.02,4.86,0,7.28c-0.02,2.12-1.36,3.57-3.33,3.63c-1.75,0.06-3.29-1.45-3.31-3.49
							c-0.05-4.96-0.05-9.93,0-14.89c0.02-2.03,1.5-3.46,3.34-3.44c1.97,0.02,3.26,1.43,3.28,3.62c0.02,2.43,0,4.86,0,7.28
							C458.13,187.46,458.14,187.46,458.14,187.46z"/>
						<path class="st8" d="M541.68,248.27c-1.88,0-2.99-0.7-3.51-2.22c-0.54-1.59,0-3.09,1.56-4.02c3.2-1.91,6.45-3.74,9.68-5.6
							c1.12-0.65,2.23-1.33,3.38-1.93c1.73-0.9,3.61-0.41,4.54,1.12c1,1.64,0.58,3.56-1.2,4.62c-4.37,2.59-8.79,5.1-13.2,7.62
							C542.48,248.12,541.93,248.19,541.68,248.27z"/>
						<path class="st8" d="M515.82,195.21c-0.27,0.73-0.42,1.37-0.73,1.91c-2.4,4.22-4.79,8.43-7.25,12.61
							c-1.17,2-3.06,2.54-4.79,1.54c-1.66-0.96-2.1-2.86-0.99-4.8c2.43-4.26,4.86-8.52,7.39-12.72c1.39-2.31,3.91-2.52,5.47-0.53
							C515.36,193.79,515.53,194.55,515.82,195.21z"/>
						<path class="st8" d="M367.87,248.23c-0.25-0.1-0.88-0.25-1.42-0.56c-4.26-2.44-8.51-4.89-12.75-7.37
							c-1.7-1-2.28-3.03-1.38-4.6c0.89-1.54,2.81-2.14,4.52-1.18c4.43,2.47,8.82,5.01,13.19,7.59c1.5,0.88,2,2.4,1.45,3.9
							C370.94,247.47,369.87,248.25,367.87,248.23z"/>
						<path class="st8" d="M408.2,208.03c0.03,1.86-0.83,3.08-2.37,3.53c-1.54,0.45-2.84-0.03-3.64-1.37
							c-2.62-4.4-5.21-8.82-7.73-13.28c-0.95-1.67-0.33-3.66,1.19-4.52c1.56-0.89,3.47-0.47,4.48,1.22
							c2.61,4.34,5.12,8.74,7.64,13.13C408.04,207.2,408.11,207.76,408.2,208.03z"/>
					</g>
					<circle class="st8" cx="454.84" cy="294.87" r="36.56"/>
					
						<ellipse transform="matrix(0.7071 -0.7071 0.7071 0.7071 -74.8416 408.045)" class="st10" cx="455.13" cy="294.36" rx="9.9" ry="9.9"/>
					<path class="st1" d="M458.48,193.76c0-1.85-1.5-3.34-3.34-3.34l0,0c-1.85,0-3.34,1.5-3.34,3.34v100.22
						c0,1.85,1.5,3.34,3.34,3.34l0,0c1.85,0,3.34-1.5,3.34-3.34V193.76z"/>
					<path class="st1" d="M402.45,329.09c-1.62,0.93-3.69,0.38-4.62-1.24l0,0c-0.93-1.62-0.38-3.69,1.24-4.62l54.33-31.28
						c1.62-0.93,3.69-0.38,4.62,1.24l0,0c0.93,1.62,0.38,3.69-1.24,4.62L402.45,329.09z"/>
					<g>
						<path class="st6" d="M483.31,133.26H426.3c-4.55,0-8.24-3.69-8.24-8.24v-17.73c0-4.55,3.69-8.24,8.24-8.24h57.01
							c4.55,0,8.24,3.69,8.24,8.24v17.73C491.55,129.57,487.86,133.26,483.31,133.26z"/>
						<rect x="426.3" y="99.05" class="st11" width="7.97" height="34.22"/>
						<rect x="442.69" y="99.05" class="st11" width="7.97" height="34.22"/>
						<rect x="459.07" y="99.05" class="st11" width="7.97" height="34.22"/>
						<rect x="475.45" y="99.05" class="st11" width="7.97" height="34.22"/>
					</g>
				</g>
				<path class="st18" d="M655.06,442.41c0,2.86-23.63,5.17-52.79,5.17c-29.15,0-52.78-2.32-52.78-5.17
					c0-2.86,23.63-5.17,52.78-5.17C631.42,437.23,655.06,439.55,655.06,442.41z"/>
				<path class="st10" d="M633.92,347.92c0,0-8.61,22.21-22.18,38.33c25.79,46.45,26.91,47.76,26.91,47.76h-33.14l-17.7-47.76
					L633.92,347.92z"/>
				<polygon class="st18" points="638.65,434 642.39,442.41 607.63,442.41 605.51,434 				"/>
				<path class="st1" d="M616.04,434l-16.03-44.56c0,0,15.93-18.27,22.58-27c-32.07,24.55-32.07,24.55-32.07,24.55L601.23,434
					H616.04z"/>
				<path class="st8" d="M636.41,334.89c0,0,0.74,20.81-20.37,36.88l-21.37,15.5L605.51,434h-31.9l-9.74-48.02
					c-1.06-5.24,0.98-10.63,5.25-13.85l32.13-24.22l1-6.8L636.41,334.89z"/>
				<path class="st35" d="M605.51,434l2.11,8.4h-45.49c0,0,1.39-6.35,11.48-8.4C599.41,434,605.51,434,605.51,434z"/>
				<path class="st10" d="M579.86,377.36c0-3.98-1.43-7.62-3.8-10.45l-6.93,5.22c-4.27,3.22-6.32,8.61-5.25,13.85l1.53,7.54
					C573.54,392.62,579.86,385.73,579.86,377.36z"/>
				<path class="st14" d="M625.74,337c0,0,0.78,12.85-21.31,29.92c-18,13.25-21.82,15.43-21.82,15.43L594.34,434"/>
				<path class="st1" d="M570.37,323.53c0,0,6.84,1.12,15.77,0.18c5.37-0.56,9.42-1.04,11.81-1.34c0.45-2.36,0.85-4.74,1.19-7.13
					L570.37,323.53z"/>
				<path class="st10" d="M606.22,340.4L606.22,340.4c0,0,1.38,8.49,7.02,10.45c5.29-5.24,7.26-11.16,7.8-13.15L606.22,340.4z"/>
				<path class="st1" d="M602.27,341.12c0,0,17.48,4.52,33.41,0.48c0.82-4.09,0.73-6.71,0.73-6.71L602.27,341.12z"/>
				<path class="st1" d="M617.3,259.42c0,0-0.37-3.68,1.95-6.35c2.33-2.67,11.28-1.89,14.04,0.6c2.76,2.5,1.88,12.57-4.83,18.26
					C626.75,269.34,617.3,259.42,617.3,259.42z"/>
				<path class="st6" d="M627.19,274.79l12.96,12.01l-3.74,48.09c0,0-14.2,7.72-34.14,6.23c9.22-56.07,9.22-56.07,9.22-56.07
					s1.98-10.05,12.58-11.26C627.19,274.79,627.19,274.79,627.19,274.79z"/>
				<path class="st1" d="M606.22,317.11c0,0,15.86-1.99,31.94-4.73l0.81-10.36l-25.9,7.66L606.22,317.11z"/>
				<path class="st7" d="M640.15,286.79c0,0,8.99,8.49,3.49,17.19c-4.72,7.46-54.81,16.96-69.02,19.52
					c-3.35,0.6-6.85-0.18-9.47-2.37c-0.35-0.3-0.69-0.62-1-0.96c-5.48,0.25-8.47-1.99-6.48-3.24c1.99-1.25,8.51-2.99,8.51-2.99
					s1.71-1.99-1.78-1.99c-3.49,0-2.99-4.34,4.24-4.41c7.23-0.07,29.4-4.56,41.61-7.8C622.46,296.51,640.15,286.79,640.15,286.79z"
					/>
				<path class="st27" d="M564.14,320.19c0,0,3.74-0.75,6.23-1.5"/>
				<path class="st6" d="M623.17,312.85c10.39-2.92,18.68-6.04,20.46-8.86c5.5-8.7-3.49-17.19-3.49-17.19s-12.77,7.02-24.1,11.11
					C618.55,300.87,622,306.01,623.17,312.85z"/>
				<path class="st7" d="M620.71,271.59v6.35c0,0-5.23,6.17-1.5,5.61c3.74-0.56,10.09-5.96,10.09-5.96v-11.61L620.71,271.59z"/>
				<path class="st19" d="M620.71,276.11c1.9-0.73,5.69-2.68,7.76-7.25c0.58-1.29,0.55-2.03,0.14-2.42l-7.9,5.15V276.11z"/>
				<path class="st7" d="M619.96,255.15c0,0-4.3,5.98-5.98,11.96c-1.68,5.98,0,6.17,0,6.17s4.67,1.87,11.4-1.5
					c5.23-3.92,6.17-8.78,6.17-8.78s-6.17,0-7.48-5.42C623.14,262.81,620.15,260.57,619.96,255.15z"/>
				<path class="st7" d="M634.63,266.64c0,1.7-1.38,3.08-3.08,3.08c-1.7,0-3.08-1.38-3.08-3.08c0-1.7,1.38-3.08,3.08-3.08
					C633.25,263.56,634.63,264.94,634.63,266.64z"/>
				<path class="st23" d="M621.47,263.9c0,0,1.94-0.39,3.66,0.81"/>
				<path class="st23" d="M617.92,262.99c0,0-0.57-0.55-2.12-0.59"/>
				<path class="st3" d="M615.8,267.95l5.39,0.99C621.19,268.95,616.58,271.79,615.8,267.95z"/>
				<path class="st36" d="M622.39,261.66c0,0,1.93-0.4,3.35,1.06"/>
				<path class="st36" d="M619.57,260.99c0,0-1.39-1.29-2.6-0.96"/>
				<path class="st15" d="M618.53,314.11c-1.58-3.12-4.81-5.27-8.55-5.27c-5.29,0-9.57,4.28-9.58,9.56
					C606.41,317.1,612.68,315.64,618.53,314.11z"/>
				<polyline class="st23" points="618.21,264.72 616.91,266.51 618.83,267.08 				"/>
				<line class="st23" x1="628.8" y1="267.95" x2="633.11" y2="265.69"/>
				<path class="st28" d="M624.08,257.58c-0.93,5.23-3.92,2.99-4.11-2.43c0,0-4.3,5.98-5.98,11.96c-1.68,5.98,0,6.17,0,6.17
					s2.19,0.87,5.72,0.35c3.71-3.04,6.28-8.37,7.64-11.77C625.94,261.08,624.61,259.78,624.08,257.58z"/>
				<path class="st3" d="M593.09,435.62c0,0.89-0.72,1.62-1.62,1.62h-16.24c-0.89,0-1.62-0.72-1.62-1.62l0,0
					c0-0.89,0.72-1.62,1.62-1.62h16.24C592.37,434,593.09,434.72,593.09,435.62L593.09,435.62z"/>
			</g>
		</g>
		<path class="st3" d="M639.3,122.53H507.94l19.09-5.43c0,0,2.46-10.56,8.88-10.56c6.43,0,10.77,6.52,10.77,6.52
			s-0.19-21.89,16.25-21.89c16.44,0,20.03,21.43,20.03,21.43s3.97-10.71,12.85-10.71s12.29,13.66,12.29,13.66L639.3,122.53z"/>
	</g>
</g>
</svg>
