<svg xmlns="http://www.w3.org/2000/svg" width="22" height="22" viewBox="0 0 16 16"><g transform="translate(0 -1036.362)"><path fill="#c2e4f8" d="M.93992221 1037.2789l11.18303579 0 0 1.1719-11.18303579 0zM15.555309 1047.9427a4 4 0 0 1-4 4 4 4 0 0 1-3.9999997-4 4 4 0 0 1 3.9999997-4 4 4 0 0 1 4 4z"/><path fill="#249fe6" d="m 0.5,1036.3622 c -0.2761,0 -0.5,0.2239 -0.5,0.5 l 0,12 c 0,0.2761 0.2239,0.5 0.5,0.5 l 5.7026,0 c -0.1134,-0.3158 -0.1611,-0.6562 -0.2012,-1 l -5.0014,0 0,-11 11,0 0,5.0014 c 0.3441,0.04 0.6838,0.088 1,0.2012 l 0,-5.7026 c 0,-0.2761 -0.2239,-0.5 -0.5,-0.5 z" color="#000" font-family="sans-serif" font-weight="400" overflow="visible" style="line-height:normal;text-indent:0;text-align:start;text-decoration-line:none;text-decoration-style:solid;text-decoration-color:#000;text-transform:none;block-progression:tb;isolation:auto;mix-blend-mode:normal"/><path fill="#249fe6" fill-rule="evenodd" style="line-height:normal;text-indent:0;text-align:start;text-decoration-line:none;text-decoration-style:solid;text-decoration-color:#000;text-transform:none;block-progression:tb;isolation:auto;mix-blend-mode:normal" d="M 11.494141,1045.3613 A 0.50005,0.50005 0 0 0 11,1045.8691 l 0,1.9922 a 0.50005,0.50005 0 0 0 0.5,0.5 l 1.789062,0 a 0.50005,0.50005 0 1 0 0,-1 l -1.289062,0 0,-1.4922 a 0.50005,0.50005 0 0 0 -0.505859,-0.5078 z" color="#000" font-family="sans-serif" font-weight="400" overflow="visible"/><path fill="#249fe6" d="m 11.4992,1043.3622 c -2.4807,0 -4.4992,2.0201 -4.4992,4.5008 0,2.4808 2.0185,4.4992 4.4992,4.4992 2.4807,0 4.5008,-2.0184 4.5008,-4.4992 0,-2.4807 -2.0201,-4.5008 -4.5008,-4.5008 z m 0,0.8178 c 2.0388,0 3.683,1.6442 3.6831,3.683 0,2.0388 -1.6443,3.6814 -3.6831,3.6814 -2.0388,0 -3.6815,-1.6426 -3.6815,-3.6814 10e-5,-2.0388 1.6427,-3.683 3.6815,-3.683 z" color="#000" font-family="sans-serif" font-weight="400" overflow="visible" style="line-height:normal;text-indent:0;text-align:start;text-decoration-line:none;text-decoration-style:solid;text-decoration-color:#000;text-transform:none;block-progression:tb;isolation:auto;mix-blend-mode:normal"/><path fill="#249fe6" fill-rule="evenodd" style="line-height:normal;text-indent:0;text-align:start;text-decoration-line:none;text-decoration-style:solid;text-decoration-color:#000;text-transform:none;block-progression:tb;isolation:auto;mix-blend-mode:normal" d="m 0.5,1038.3613 0,1 12,0 0,-1 -12,0 z" color="#000" font-family="sans-serif" font-weight="400" overflow="visible"/><path fill="#249fe6" style="isolation:auto;mix-blend-mode:normal" d="M2.000042 1040.3622l1 0 0 1-1 0zM4.000042 1040.3622l1 0 0 1-1 0zM6.000042 1040.3622l1 0 0 1-1 0zM8.000042 1040.3622l1 0 0 1-1 0zM10.010906 1040.3622l1 0 0 1-1 0zM2.000042 1042.3622l1 0 0 1-1 0zM4.000042 1042.3622l1 0 0 1-1 0zM6.000042 1042.3622l1 0 0 1-1 0zM2.000042 1044.3622l1 0 0 1-1 0zM4.000042 1044.3622l1 0 0 1-1 0zM2.000042 1046.3622l1 0 0 1-1 0zM4.000042 1046.3622l1 0 0 1-1 0zM7 1044.8856l0-.5234-1 0 0 1 .6777 0c.09-.1716.2156-.3161.3223-.4766zM8 1042.3622l0 1 .5215 0C8.6824 1043.2551 8.8278 1043.13 9 1043.0399l0-.6777-1 0z" color="#000" overflow="visible"/></g></svg>